<svg xmlns="http://www.w3.org/2000/svg" width="94" height="94" fill="none" viewBox="0 0 94 94"><rect width="94" height="94" fill="#000" fill-opacity=".01" rx="47"/><path stroke="#fff" stroke-linecap="round" stroke-linejoin="round" stroke-width="3" d="M42 47h10M42 37h10M52 69.5V62a5 5 0 1 0-10 0v7.5"/><path stroke="#fff" stroke-linecap="round" stroke-linejoin="round" stroke-width="3" d="M32 42h-5a5 5 0 0 0-5 5v17.5a5 5 0 0 0 5 5h40a5 5 0 0 0 5-5v-25a5 5 0 0 0-5-5h-5"/><path stroke="#fff" stroke-linecap="round" stroke-linejoin="round" stroke-width="3" d="M32 69.5v-40a5 5 0 0 1 5-5h20a5 5 0 0 1 5 5v40"/></svg>